<svg width="159" height="109" viewBox="0 0 159 109" fill="none" xmlns="http://www.w3.org/2000/svg">
<rect width="159" height="107.695" fill="black" fill-opacity="0" transform="translate(0 0.665588)"/>
<path d="M134.54 8.03162L150.73 0.665588C156.09 16.2915 159 33.0559 159 50.5C159 68.5878 155.871 85.945 150.126 102.06L133.956 94.7029C138.723 80.8459 141.312 65.9753 141.312 50.5C141.312 35.6685 138.934 21.3923 134.54 8.03162Z" fill="#C4FC90"/>
<path d="M104.848 21.5409L121.422 13.9999C125.046 25.521 127 37.7823 127 50.5C127 63.8614 124.843 76.7191 120.859 88.7439L104.318 81.2184C107.332 71.5133 108.955 61.1962 108.955 50.5C108.955 40.4477 107.522 30.7302 104.848 21.5409Z" fill="#C4FC90"/>
<path d="M75.3928 34.941C76.4456 39.9561 77 45.1615 77 50.5C77 56.4857 76.3031 62.3043 74.988 67.8746L91.4949 75.3851C93.7771 67.4849 95 59.1353 95 50.5C95 42.5089 93.9527 34.7624 91.9879 27.3902L75.3928 34.941Z" fill="#C4FC90"/>
<path d="M71.9942 77.554C72.3219 76.7046 72.6346 75.8474 72.9321 74.9828L89.1606 82.3667C87.8837 85.717 86.4114 88.9708 84.7575 92.1143C83.1332 95.2015 79.8587 97 76.3702 97H28.3028C26.1484 97 24.0415 97.6326 22.2435 98.8193L9.30505 107.359C5.31596 109.991 0 107.131 0 102.351V19C0 10.7158 6.71575 4 15 4H76.3701C79.8587 4 83.1332 5.79846 84.7575 8.88574C86.6978 12.5736 88.3883 16.4135 89.8064 20.3828L73.5184 27.7939C73.0537 26.3238 72.5451 24.8739 71.9942 23.4461C71.4177 21.9518 69.9611 21 68.3595 21H22C18.134 21 15 24.134 15 28V80.5536C15 82.0893 16.659 83.052 17.9923 82.2901L21.5389 80.2635C21.841 80.0908 22.1831 80 22.5311 80H68.3595C69.9611 80 71.4177 79.0482 71.9942 77.554Z" fill="#52AED2"/>
</svg>
